Coordinates
version=1
nRows=12
nColumns=24
inDegrees=yes

Units are S.I. units (second, meters, Newtons, ...)
Angles are in degrees.

endheader
time	pelvis_tilt	pelvis_list	pelvis_rotation	pelvis_tx	pelvis_ty	pelvis_tz	hip_flexion_r	hip_adduction_r	hip_rotation_r	knee_angle_r	ankle_angle_r	subtalar_angle_r	mtp_angle_r	hip_flexion_l	hip_adduction_l	hip_rotation_l	knee_angle_l	ankle_angle_l	subtalar_angle_l	mtp_angle_l	lumbar_extension	lumbar_bending	lumbar_rotation
      3.11000000	    -11.27352787	     -1.35791738	      9.97711237	     -1.87595460	     -0.03449585	     -0.30770238	     35.83805495	     -4.96548594	    -19.83991030	     -8.83221376	     -2.29284832	      1.05086382	     10.56268002	     -3.11669224	      0.31277045	     -3.82254008	    -15.78193995	      8.93019524	     -2.98074994	     -5.50375292	      4.26798836	      1.23690472	    -12.37641056
      3.11500000	    -11.21011422	     -1.47615388	     10.00178569	     -1.86781659	     -0.03510551	     -0.30732597	     35.72088149	     -4.78104679	    -19.78895650	     -9.27676282	     -2.50254192	      0.95456112	     12.45212800	     -3.42349185	     -0.03577372	     -4.03933189	    -16.13101839	      8.10317391	     -2.69065937	     -3.43852809	      4.35283094	      1.37983122	    -12.38629308
      3.12000000	    -11.27792416	     -1.61393333	     10.03801722	     -1.85963275	     -0.03581310	     -0.30699486	     35.76397537	     -4.61961331	    -19.70096053	     -9.87665379	     -2.48888800	      1.01097024	     12.56555132	     -3.54107163	     -0.37126026	     -4.15353067	    -16.62519698	      7.72017109	     -2.24388998	     -3.44031810	      4.59184151	      1.52287426	    -12.41975287
      3.12500000	    -11.31256900	     -1.75713398	     10.02947821	     -1.85137744	     -0.03647309	     -0.30650448	     35.75905464	     -4.40070200	    -19.52853004	    -10.46651649	     -2.65553089	      0.86140361	     12.72160608	     -3.67687482	     -0.74090988	     -4.37726351	    -17.15636773	      7.32069249	     -1.67400017	     -3.35546377	      4.80163875	      1.66765461	    -12.36396072
      3.13000000	    -11.34328877	     -1.91878571	      9.97773986	     -1.84305864	     -0.03707002	     -0.30591013	     35.73003684	     -4.11979989	    -19.20842951	    -11.01280286	     -3.09329630	      0.46894883	     12.92754366	     -3.81804093	     -1.13594870	     -4.60375227	    -17.67671702	      6.82507350	     -1.13027689	     -3.15854296	      5.01592410	      1.83363734	    -12.31749910
      3.13500000	    -11.34146577	     -2.09766350	      9.91906910	     -1.83470491	     -0.03759773	     -0.30532285	     35.64447797	     -3.81516735	    -18.91289894	    -11.47286347	     -3.92899098	     -0.15219132	     14.49278230	     -3.98163076	     -1.55979385	     -4.88802455	    -18.15002349	      5.88246961	     -0.81465169	     -1.39682905	      5.20346842	      2.02998426	    -12.23377515
      3.14000000	    -11.43519874	     -2.32635436	      9.84910959	     -1.82634599	     -0.03812383	     -0.30465904	     35.67564431	     -3.46707592	    -18.58820879	    -11.97528108	     -4.73263916	     -0.81114570	     14.43460247	     -3.97554687	     -2.02969153	     -5.15699142	    -18.77845671	      5.32350614	     -0.25315017	     -1.36324523	      5.49957133	      2.25208976	    -12.17064758
      3.14500000	    -11.50372055	     -2.58540212	      9.73334895	     -1.81797990	     -0.03854291	     -0.30391919	     35.67389104	     -3.05056038	    -18.17301097	    -12.42736589	     -5.72741455	     -1.67316306	     14.34499318	     -3.97307715	     -2.53974263	     -5.45225797	    -19.43051168	      4.65971502	      0.26955036	     -1.22290684	      5.77331654	      2.51873887	    -12.05072438
      3.15000000	    -11.58094271	     -2.88095779	      9.58455015	     -1.80960491	     -0.03887806	     -0.30312304	     35.68471024	     -2.57970580	    -17.72353544	    -12.85398631	     -6.85379545	     -2.69940752	     14.19973333	     -3.92316433	     -3.09524639	     -5.78612292	    -20.12769326	      3.89889031	      0.78558612	     -0.95866948	      6.06162275	      2.82702126	    -11.90822072
      3.15500000	    -11.66365813	     -3.21426811	      9.32220223	     -1.80116513	     -0.03915701	     -0.30219964	     35.71880179	     -2.00742489	    -17.17169493	    -13.28248878	     -8.04384288	     -3.83476293	     13.98502936	     -3.85738541	     -3.69694446	     -6.24940358	    -20.84232663	      2.99679518	      1.29439935	     -0.34098931	      6.36134565	      3.19230116	    -11.63025371
      3.16000000	    -11.75616878	     -3.57425355	      9.13576841	     -1.79281202	     -0.03931963	     -0.30133528	     35.76029224	     -1.45570317	    -16.65622338	    -13.72281502	     -9.21350477	     -5.10291909	     13.59273585	     -3.69856844	     -4.33306352	     -6.60540874	    -21.64586905	      1.97183175	      1.73745072	      0.30379908	      6.66846261	      3.57207345	    -11.47355360
      3.16500000	    -11.79017669	     -3.98542980	      8.95143354	     -1.78436623	     -0.03930990	     -0.30043668	     35.72586315	     -0.83622288	    -16.11287166	    -14.19299006	    -10.12212371	     -6.32391047	     12.33542982	     -3.59349944	     -5.04752053	     -6.97742894	    -22.34913879	      0.25071230	      1.89375051	      3.27371563	      6.93145113	      4.00844020	    -11.35219029
